<svg width="58.000000" height="58.000000" viewBox="0 0 58 58" fill="none" xmlns="http://www.w3.org/2000/svg" xmlns:xlink="http://www.w3.org/1999/xlink">
	<desc>
			Created with Pixso.
	</desc>
	<defs/>
	<path id="Rectangle 3328" d="M29 0C12.98 0 0 12.98 0 29C0 45.01 12.98 58 29 58C45.01 58 58 45.01 58 29C58 12.98 45.01 0 29 0ZM3.05 39.74Q1 34.79 1 29Q1 23.2 3.05 18.25Q5.1 13.3 9.2 9.2Q13.3 5.1 18.25 3.05Q23.2 1 29 1Q34.79 1 39.74 3.05Q44.69 5.1 48.79 9.2Q52.89 13.3 54.94 18.25Q57 23.2 57 29Q57 34.79 54.94 39.74Q52.89 44.69 48.79 48.79Q44.69 52.89 39.74 54.94Q34.79 57 29 57Q23.2 57 18.25 54.94Q13.3 52.89 9.2 48.79Q5.1 44.69 3.05 39.74Z" fill="#21A038" fill-opacity="1.000000" fill-rule="evenodd"/>
	<path id="Union" d="M28 19C23.0293 19 19 23.0295 19 28C19 32.9705 23.0293 37 28 37C30.3052 37 32.4082 36.1333 34.0005 34.7078L38.2427 38.9497L38.9497 38.2427L34.7075 34.0007C36.1333 32.4082 37 30.3054 37 28C37 23.0295 32.9707 19 28 19ZM28 20C23.5815 20 20 23.5818 20 28C20 32.4182 23.5815 36 28 36C32.4185 36 36 32.4182 36 28C36 23.5818 32.4185 20 28 20Z" clip-rule="evenodd" fill="#333F48" fill-opacity="1.000000" fill-rule="evenodd"/>
</svg>
