<svg width="155.773926" height="21.000000" viewBox="0 0 155.774 21" fill="none" xmlns="http://www.w3.org/2000/svg" xmlns:xlink="http://www.w3.org/1999/xlink">
	<desc>
			Created with Pixso.
	</desc>
	<defs/>
	<path id="Vector" d="M85.7 4.19C90.34 4.19 92.59 6.35 92.59 10.19C92.59 14.78 89.72 16.69 85.65 16.69L81.39 16.69L81.39 4.19L85.7 4.19ZM85.67 14.66C88.76 14.66 90.27 13.14 90.27 10.42C90.27 7.63 88.86 6.26 85.69 6.26L83.65 6.26L83.65 14.66L85.67 14.66Z" fill="#006EFF" fill-opacity="1.000000" fill-rule="nonzero"/>
	<path id="Vector" d="M102.6 11.3L96.84 11.3L96.84 14.66L103.46 14.66L103.46 16.71L94.6 16.71L94.6 4.19L103.25 4.19L103.25 6.24L96.82 6.24L96.82 9.22L102.58 9.22L102.58 11.3L102.6 11.3Z" fill="#006EFF" fill-opacity="1.000000" fill-rule="nonzero"/>
	<path id="Vector" d="M109.54 16.71L104.39 4.19L106.78 4.19L110.68 13.96L114.56 4.19L116.82 4.19L111.75 16.71L109.54 16.71Z" fill="#006EFF" fill-opacity="1.000000" fill-rule="nonzero"/>
	<path id="Vector" d="M120.45 16.71L118.21 16.71L118.21 4.19L120.45 4.19L120.45 16.71Z" fill="#006EFF" fill-opacity="1.000000" fill-rule="nonzero"/>
	<path id="Vector" d="M133.72 15.33C133.09 16.09 131.46 16.9 129.29 16.9C125.2 16.88 122.49 14.47 122.49 10.42C122.49 6.64 125.17 3.98 129.31 3.98C131.27 3.98 132.73 4.59 133.45 5.1L133.45 8.22C132.69 7.11 131.19 6.03 129.31 6.03C126.57 6.03 124.9 7.8 124.9 10.42C124.9 12.85 126.38 14.77 129.27 14.81C131.46 14.81 133 13.81 133.72 12.55L133.72 15.33Z" fill="#006EFF" fill-opacity="1.000000" fill-rule="nonzero"/>
	<path id="Vector" d="M143.66 11.3L137.9 11.3L137.9 14.66L144.52 14.66L144.52 16.71L135.66 16.71L135.66 4.19L144.31 4.19L144.31 6.24L137.88 6.24L137.88 9.22L143.64 9.22L143.64 11.3L143.66 11.3Z" fill="#006EFF" fill-opacity="1.000000" fill-rule="nonzero"/>
	<path id="Vector" d="M151.07 6.05C149.33 6.07 148.58 6.6 148.58 7.46C148.58 10.04 155.77 8.22 155.77 13.1C155.77 15.21 154.25 16.88 150.88 16.88C148.7 16.88 146.97 16.07 146.3 15.31L146.3 12.57C147.06 13.84 148.7 14.83 150.9 14.83C152.65 14.83 153.47 14.22 153.47 13.2C153.47 10.55 146.3 12.49 146.3 7.49C146.3 5.27 148.07 3.98 151.06 3.98C152.99 4 154.44 4.57 155.14 5.1L155.14 8.2C154.44 7.1 152.92 6.03 151.07 6.05Z" fill="#006EFF" fill-opacity="1.000000" fill-rule="nonzero"/>
	<path id="Vector" d="M16.54 2.73C16.72 2.6 16.89 2.47 17.08 2.34C17.06 2.32 17.04 2.31 17.03 2.3C16.37 1.76 15.66 1.31 14.88 0.96C13.67 0.4 12.4 0.09 11.07 0.01C10.28 -0.03 9.49 0.01 8.71 0.15Q7.99 0.27 7.3 0.49Q6.62 0.71 5.96 1.02C4.79 1.59 3.75 2.35 2.85 3.3C2.09 4.11 1.47 5.01 1 6.02C0.41 7.26 0.08 8.57 0.01 9.95C-0.03 10.75 0.02 11.54 0.16 12.33C0.32 13.27 0.61 14.17 1.02 15.03C1.66 16.36 2.54 17.51 3.66 18.46C4.5 19.19 5.44 19.77 6.47 20.2C7.6 20.66 8.78 20.93 10 20.98C10.75 21.02 11.49 20.98 12.23 20.85C13.2 20.69 14.13 20.4 15.02 19.97C16.26 19.38 17.34 18.57 18.27 17.56C19.2 16.53 19.9 15.37 20.37 14.06C20.76 13 20.96 11.9 20.99 10.77C21.01 10.16 20.97 9.56 20.88 8.97C20.87 8.85 20.85 8.74 20.83 8.62C20.8 8.64 20.79 8.64 20.78 8.65C20.05 9.19 19.33 9.72 18.61 10.25C18.57 10.28 18.56 10.31 18.56 10.35C18.58 11.02 18.51 11.69 18.35 12.34C17.96 13.98 17.14 15.36 15.89 16.49C14.51 17.73 12.89 18.41 11.04 18.55C10.33 18.6 9.62 18.56 8.92 18.41C7.19 18.06 5.73 17.23 4.54 15.93C3.32 14.6 2.64 13.03 2.46 11.23C2.39 10.55 2.42 9.86 2.54 9.18C2.68 8.29 2.98 7.45 3.41 6.65C3.83 5.88 4.37 5.19 5.02 4.58C5.65 4.01 6.34 3.54 7.11 3.18C8.04 2.75 9 2.51 10.02 2.44C10.69 2.4 11.36 2.45 12.02 2.57C13.09 2.78 14.08 3.18 14.98 3.79C15.03 3.82 15.06 3.82 15.11 3.79C15.58 3.43 16.06 3.08 16.54 2.73ZM9.82 12.8C10.05 12.94 10.27 13.08 10.49 13.22C10.52 13.21 10.54 13.19 10.56 13.17C11.91 12.18 13.25 11.19 14.59 10.2C16.39 8.87 18.19 7.55 20 6.22C20.04 6.19 20.05 6.17 20.03 6.11C19.77 5.57 19.47 5.05 19.13 4.56C19.02 4.4 18.91 4.25 18.79 4.09C18.77 4.11 18.75 4.12 18.73 4.13C18.18 4.54 17.63 4.94 17.08 5.35C14.91 6.95 12.74 8.54 10.57 10.14C10.52 10.18 10.49 10.19 10.42 10.15C9.18 9.37 7.93 8.59 6.68 7.81C6.63 7.78 6.57 7.74 6.51 7.7L6.51 7.81C6.51 8.74 6.51 9.67 6.5 10.6C6.5 10.68 6.53 10.73 6.6 10.77C7.68 11.44 8.75 12.12 9.82 12.8Z" fill="#333F48" fill-opacity="1.000000" fill-rule="evenodd"/>
	<path id="Vector" d="M32.5 9.36C31.06 9.01 29.8 8.71 29.8 7.7C29.8 6.35 31.47 6.2 32.2 6.2C33.18 6.2 33.75 6.33 34.5 6.68C34.86 6.41 36.49 5.19 36.49 5.19C35.41 4.51 33.79 3.96 32.22 3.96C28.45 3.96 27.12 5.95 27.12 7.84C27.12 10.54 29.46 11.09 31.53 11.58C32.98 11.92 34.23 12.23 34.23 13.25C34.23 13.79 33.91 14.66 31.82 14.66C30.41 14.66 28.89 14.17 27.81 13.37L26.89 15.46C28 16.31 29.92 16.88 31.82 16.88C34.93 16.88 36.95 15.36 36.95 13.03C36.93 10.4 34.57 9.85 32.5 9.36Z" fill="#333F48" fill-opacity="1.000000" fill-rule="nonzero"/>
	<path id="Vector" d="M48.35 10.25L48.22 10.21L48.33 10.16C49.36 9.6 49.93 8.63 49.93 7.44C49.93 5.42 48.22 4.21 45.35 4.21L39.42 4.21L39.42 16.69L45.69 16.69C48.81 16.69 50.54 15.5 50.54 13.31C50.56 11.83 49.74 10.71 48.35 10.25ZM42.14 6.28L45.01 6.28C46.81 6.28 47.19 7.11 47.19 7.8C47.19 8.81 46.43 9.32 45.01 9.32L42.14 9.32L42.14 6.28ZM42.14 9.34L45.01 9.34L42.14 9.34ZM45.5 14.62L42.14 14.62L42.14 11.41L45.5 11.41C47.04 11.41 47.82 11.94 47.82 13.01C47.82 14.09 47.06 14.62 45.5 14.62Z" fill="#333F48" fill-opacity="1.000000" fill-rule="nonzero"/>
	<path id="Vector" d="M59.7 6.28L62.51 4.19L53.07 4.19L53.07 16.69L62.51 16.69L62.51 14.62L55.77 14.62L55.77 11.41L61.53 11.41L61.53 9.34L55.77 9.34L55.77 6.28L59.7 6.28Z" fill="#333F48" fill-opacity="1.000000" fill-rule="nonzero"/>
	<path id="Vector" d="M75.71 16.69L72.95 12.63C74.57 11.92 75.5 10.52 75.5 8.65C75.5 5.9 73.46 4.19 70.17 4.19L65.02 4.19L65.02 16.69L67.72 16.69L67.72 13.16L70.17 13.16C70.25 13.16 70.33 13.16 70.4 13.16L72.82 16.69L75.71 16.69ZM67.72 6.28L70.12 6.28C71.85 6.28 72.8 7.13 72.8 8.67C72.8 10.21 71.85 11.07 70.12 11.07L67.72 11.07L67.72 6.28Z" fill="#333F48" fill-opacity="1.000000" fill-rule="nonzero"/>
</svg>
